<?xml version="1.0" encoding="UTF-8" standalone="no"?>
<!DOCTYPE svg PUBLIC "-//W3C//DTD SVG 1.1//EN"
 "http://www.w3.org/Graphics/SVG/1.1/DTD/svg11.dtd">
<!-- Generated by graphviz version 2.40.1 (20161225.0304)
 -->
<!-- Title: %3 Pages: 1 -->
<svg width="223pt" height="332pt"
 viewBox="0.00 0.00 223.48 332.00" xmlns="http://www.w3.org/2000/svg" xmlns:xlink="http://www.w3.org/1999/xlink">
<g id="graph0" class="graph" transform="scale(1 1) rotate(0) translate(4 328)">
<title>%3</title>
<polygon fill="#ffffff" stroke="transparent" points="-4,4 -4,-328 219.4842,-328 219.4842,4 -4,4"/>
<!-- Square -->
<g id="node1" class="node">
<title>Square</title>
<ellipse fill="none" stroke="#000000" cx="147.2421" cy="-18" rx="34.8285" ry="18"/>
<text text-anchor="middle" x="147.2421" y="-13.8" font-family="Times,serif" font-size="14.00" fill="#000000">Square</text>
</g>
<!-- Minus -->
<g id="node2" class="node">
<title>Minus</title>
<ellipse fill="none" stroke="#000000" cx="147.2421" cy="-90" rx="32.9255" ry="18"/>
<text text-anchor="middle" x="147.2421" y="-85.8" font-family="Times,serif" font-size="14.00" fill="#000000">Minus</text>
</g>
<!-- Minus&#45;&gt;Square -->
<g id="edge7" class="edge">
<title>Minus&#45;&gt;Square</title>
<path fill="none" stroke="#000000" d="M147.2421,-71.8314C147.2421,-64.131 147.2421,-54.9743 147.2421,-46.4166"/>
<polygon fill="#000000" stroke="#000000" points="150.7422,-46.4132 147.2421,-36.4133 143.7422,-46.4133 150.7422,-46.4132"/>
</g>
<!-- Add -->
<g id="node3" class="node">
<title>Add</title>
<ellipse fill="none" stroke="#000000" cx="110.2421" cy="-162" rx="27" ry="18"/>
<text text-anchor="middle" x="110.2421" y="-157.8" font-family="Times,serif" font-size="14.00" fill="#000000">Add</text>
</g>
<!-- Add&#45;&gt;Minus -->
<g id="edge6" class="edge">
<title>Add&#45;&gt;Minus</title>
<path fill="none" stroke="#000000" d="M119.0106,-144.937C123.3701,-136.4537 128.7374,-126.0092 133.6174,-116.513"/>
<polygon fill="#000000" stroke="#000000" points="136.8218,-117.9348 138.2795,-107.4407 130.5958,-114.7352 136.8218,-117.9348"/>
</g>
<!-- Multiply -->
<g id="node4" class="node">
<title>Multiply</title>
<ellipse fill="none" stroke="#000000" cx="67.2421" cy="-234" rx="41.1266" ry="18"/>
<text text-anchor="middle" x="67.2421" y="-229.8" font-family="Times,serif" font-size="14.00" fill="#000000">Multiply</text>
</g>
<!-- Multiply&#45;&gt;Add -->
<g id="edge3" class="edge">
<title>Multiply&#45;&gt;Add</title>
<path fill="none" stroke="#000000" d="M77.6512,-216.5708C82.8499,-207.8661 89.2399,-197.1665 94.9803,-187.5546"/>
<polygon fill="#000000" stroke="#000000" points="98.1024,-189.153 100.225,-178.7729 92.0926,-185.5637 98.1024,-189.153"/>
</g>
<!-- x_var -->
<g id="node5" class="node">
<title>x_var</title>
<ellipse fill="none" stroke="#000000" cx="30.2421" cy="-306" rx="30.4862" ry="18"/>
<text text-anchor="middle" x="30.2421" y="-301.8" font-family="Times,serif" font-size="14.00" fill="#000000">x_var</text>
</g>
<!-- x_var&#45;&gt;Multiply -->
<g id="edge1" class="edge">
<title>x_var&#45;&gt;Multiply</title>
<path fill="none" stroke="#000000" d="M39.1988,-288.5708C43.4976,-280.2055 48.7432,-269.998 53.5296,-260.6839"/>
<polygon fill="#000000" stroke="#000000" points="56.6532,-262.263 58.1109,-251.7689 50.4271,-259.0634 56.6532,-262.263"/>
</g>
<!-- w -->
<g id="node6" class="node">
<title>w</title>
<ellipse fill="none" stroke="#000000" cx="105.2421" cy="-306" rx="27" ry="18"/>
<text text-anchor="middle" x="105.2421" y="-301.8" font-family="Times,serif" font-size="14.00" fill="#000000">w</text>
</g>
<!-- w&#45;&gt;Multiply -->
<g id="edge2" class="edge">
<title>w&#45;&gt;Multiply</title>
<path fill="none" stroke="#000000" d="M96.2366,-288.937C91.7923,-280.5161 86.328,-270.1627 81.3457,-260.7226"/>
<polygon fill="#000000" stroke="#000000" points="84.3428,-258.9026 76.5798,-251.6924 78.1521,-262.17 84.3428,-258.9026"/>
</g>
<!-- b -->
<g id="node7" class="node">
<title>b</title>
<ellipse fill="none" stroke="#000000" cx="153.2421" cy="-234" rx="27" ry="18"/>
<text text-anchor="middle" x="153.2421" y="-229.8" font-family="Times,serif" font-size="14.00" fill="#000000">b</text>
</g>
<!-- b&#45;&gt;Add -->
<g id="edge4" class="edge">
<title>b&#45;&gt;Add</title>
<path fill="none" stroke="#000000" d="M143.0517,-216.937C137.8573,-208.2393 131.4315,-197.4799 125.6473,-187.7948"/>
<polygon fill="#000000" stroke="#000000" points="128.4917,-185.7314 120.3594,-178.9405 122.4819,-189.3206 128.4917,-185.7314"/>
</g>
<!-- y_var -->
<g id="node8" class="node">
<title>y_var</title>
<ellipse fill="none" stroke="#000000" cx="185.2421" cy="-162" rx="30.4862" ry="18"/>
<text text-anchor="middle" x="185.2421" y="-157.8" font-family="Times,serif" font-size="14.00" fill="#000000">y_var</text>
</g>
<!-- y_var&#45;&gt;Minus -->
<g id="edge5" class="edge">
<title>y_var&#45;&gt;Minus</title>
<path fill="none" stroke="#000000" d="M176.0434,-144.5708C171.5954,-136.1431 166.1606,-125.8455 161.2153,-116.4755"/>
<polygon fill="#000000" stroke="#000000" points="164.2508,-114.7284 156.4879,-107.5182 158.0601,-117.9958 164.2508,-114.7284"/>
</g>
</g>
</svg>
